<svg width="27" height="27" viewBox="0 0 27 27" fill="none" xmlns="http://www.w3.org/2000/svg">
<path d="M13.5 0C20.9561 0 27 6.04395 27 13.5C27 20.956 20.9561 27 13.5 27C11.1143 27.0038 8.7705 26.3725 6.70951 25.1707L0.00541899 27L1.83062 20.2932C0.627894 18.2316 -0.00396681 15.8868 1.87383e-05 13.5C1.87383e-05 6.04395 6.04397 0 13.5 0ZM8.89921 7.155L8.62921 7.1658C8.45442 7.17644 8.28359 7.22236 8.12701 7.3008C7.98057 7.38372 7.84688 7.4874 7.73011 7.60859C7.56811 7.76114 7.47631 7.89344 7.37776 8.02169C6.87843 8.67091 6.60958 9.46797 6.61366 10.287C6.61636 10.9485 6.78916 11.5924 7.05916 12.1945C7.61131 13.4122 8.51986 14.7015 9.71866 15.8962C10.0076 16.1838 10.2911 16.4727 10.5962 16.7413C12.0857 18.0528 13.8608 18.9986 15.7802 19.5034L16.547 19.6209C16.7967 19.6344 17.0465 19.6155 17.2976 19.6033C17.6907 19.583 18.0746 19.4766 18.4221 19.2915C18.5989 19.2004 18.7714 19.1013 18.9392 18.9945C18.9392 18.9945 18.9972 18.9567 19.1079 18.873C19.2902 18.738 19.4022 18.6421 19.5534 18.4842C19.6655 18.3681 19.7627 18.2317 19.8369 18.0765C19.9422 17.8564 20.0475 17.4366 20.0907 17.0869C20.1231 16.8196 20.1137 16.6738 20.1096 16.5834C20.1042 16.4389 19.9841 16.2891 19.8531 16.2256L19.0674 15.8733C19.0674 15.8733 17.8929 15.3616 17.1747 15.0349C17.0996 15.0021 17.019 14.9834 16.9371 14.9796C16.8447 14.9701 16.7514 14.9805 16.6634 15.0101C16.5754 15.0396 16.4947 15.0877 16.4268 15.151C16.4201 15.1483 16.3296 15.2253 15.3536 16.4079C15.2975 16.4832 15.2204 16.5401 15.1319 16.5713C15.0434 16.6026 14.9476 16.6068 14.8568 16.5834C14.7688 16.5598 14.6826 16.53 14.5989 16.4943C14.4315 16.4241 14.3735 16.3971 14.2587 16.3485C13.4839 16.0104 12.7665 15.5535 12.1325 14.9944C11.9624 14.8459 11.8044 14.6839 11.6424 14.5273C11.1113 14.0187 10.6484 13.4433 10.2654 12.8155L10.1858 12.6873C10.1286 12.6011 10.0823 12.5081 10.0481 12.4105C9.99676 12.2121 10.1304 12.0528 10.1304 12.0528C10.1304 12.0528 10.4585 11.6937 10.611 11.4993C10.7595 11.3103 10.8851 11.1267 10.9661 10.9957C11.1254 10.7392 11.1753 10.476 11.0916 10.2721C10.7136 9.34874 10.3221 8.42939 9.91981 7.51679C9.84016 7.33589 9.60391 7.20629 9.38926 7.18064C9.31636 7.17254 9.24346 7.16444 9.17056 7.15905C8.98927 7.15004 8.80759 7.15184 8.62651 7.16445L8.89786 7.15364L8.89921 7.155Z" fill="white"/>
</svg>
